<?xml version="1.0" encoding="UTF-8"?>
<svg id="Layer_2" data-name="Layer 2" xmlns="http://www.w3.org/2000/svg" viewBox="0 0 385.87 237.46">
  <defs>
    <style>
      .cls-1 {
        fill: #f0b41d;
      }

      .cls-1, .cls-2 {
        fill-rule: evenodd;
      }

      .cls-1, .cls-2, .cls-3 {
        stroke: #e95924;
        stroke-linecap: round;
        stroke-linejoin: round;
        stroke-width: 2px;
      }

      .cls-2, .cls-3 {
        fill: #e67525;
      }
    </style>
  </defs>
  <g id="Layer_1-2" data-name="Layer 1">
    <path class="cls-3" d="M53.27,166.7c-13.28,5.8-37.97,6.97-38.48-12.64,0-12.59,2.91-22.56,8.72-29.92,5.04-6.82,14.33-11.32,23.14-11.05,9.85,.3,17.24,9.68,14.9,19.25-3.57,14.59-30.13,11.64-44.31,3.86,10.43,25.02,66.15,22.87,56.51-17.12-.68-2.83-2.11-5.42-4.13-7.51-17.15-17.68-52.7-8.16-62.67,13.46-24.25,50.39,31.63,78.91,60.96,31.76-3.73,4.16-8.61,7.47-14.64,9.92Z"/>
    <path class="cls-3" d="M148.87,170.22c-3.12,.16-4.14-2.09-3.2-4.32,0,0,12.16-48.32,12.16-48.32,2.01-7.46-6.86-14.8-13.6-15.04-10.89,1.38-21.79,12.37-31.2,21.76,11.68-32.72-15.16-21.93-29.12-5.12,6.25-3.79,16.22-9.8,17.76-2.88,.16,1.22-14.24,56.65-14.4,57.92-2.83,8.84,12.97,7.38,13.28,0,0,0,8.64-34.56,8.64-34.56,9.5-10.49,23.15-21.44,35.84-23.36,.1,5.9-18.51,58.3-11.84,62.08,10.6,6.52,22.32-6,30.24-14.08-5.97,3.95-10.83,5.92-14.56,5.92Z"/>
    <path class="cls-3" d="M248.31,61.98c-8.21-6.61-23.9-5.14-31.76,1.76-10.46,6.95-12.48,29.25-15.84,40.4h-18.24l-2.56,10.24h18.24l-20,79.68c-20.46-6.23-61.83,1.88-51.52,30.24,9.4,15.16,34.29,15.74,46.96,4,6.24-5.44,11.17-13.5,14.8-24.16,7.18,1.19,15.73,2.96,21.12,5.92-6.19-5.12-12.59-9.07-19.2-11.84l.64-2.56,20.32-81.28h26.4l2.56-10.24h-26.4l5.92-24.16c1.26-8.48,11.14-15.63,18.4-10.16,5.63,7.03-1.67,17.01-9.76,18.8,17.24,1.23,34.95-11.46,19.92-26.64Zm-83.28,158c-32.72,21.97-43.48-21.67,10.72-17.12-2.67,7.46-6.24,13.17-10.72,17.12Z"/>
    <path class="cls-3" d="M291.67,166.7c-13.29,5.8-37.97,6.97-38.48-12.64,0-12.59,2.9-22.56,8.72-29.92,5.04-6.82,14.33-11.33,23.14-11.05,9.85,.31,17.24,9.68,14.9,19.25-3.57,14.59-30.1,11.55-44.28,3.77,10.39,25.01,66.12,22.97,56.49-17.04-.68-2.83-2.11-5.42-4.13-7.51-17.15-17.68-52.7-8.16-62.67,13.46-24.26,50.39,31.62,78.91,60.96,31.76-3.74,4.16-8.62,7.47-14.64,9.92Z"/>
    <path class="cls-3" d="M377.59,136.7c29.25,40.24-54.46,62.24-59.6,27.76-1.14-18.47,33.45-18.06,30.24,.8-4.17-7.21-22.13-5.21-16.34,1.98,1.25,1.55,3.06,2.54,5.01,2.98,13.9,3.14,35.62-2.34,33.09-18.24-1.79-11.28-10.24-8.94-20.41-7.45-15.06,2.21-24.66-16.28-15.83-29.76,11.57-18.31,44.59-15.74,51.12,5.68-29.51-25.07-64.28,17.77-24.48,10.71h0c6.48-.77,13.1,1.13,17.2,5.53Z"/>
    <path class="cls-2" d="M39.58,28.46c-5.93,16.98-15.03,34.77,13.64,51.06-8.58-11.46-6.27-22.51-2.82-40.99,2.71-14.45,5.18-27.81-8.52-37.53,4.49,7.89,1.21,17.39-2.3,27.46h0Z"/>
    <path class="cls-2" d="M67.5,55.98c-3.97,11.46-10.08,23.43,9.21,34.43-5.76-7.71-4.2-15.2-1.9-27.63,1.78-9.73,3.45-18.77-5.76-25.27,3.05,5.3,.81,11.69-1.55,18.48h0Z"/>
    <path class="cls-2" d="M10.68,53.96c-3.97,11.46-10.13,23.43,9.21,34.37-5.81-7.66-4.26-15.14-1.96-27.58,1.84-9.79,3.51-18.77-5.7-25.27,3,5.3,.81,11.69-1.55,18.48h0Z"/>
    <path class="cls-1" d="M19.89,88.33c-23.43-14.05,3.22-43.81-7.66-52.85,3,5.3,.81,11.69-1.55,18.48-3.97,11.46-10.13,23.43,9.21,34.37h0Z"/>
    <path class="cls-1" d="M39.58,28.46c-5.93,16.98-15.03,34.77,13.64,51.06C18.4,58.34,61.86,17.52,42.63,1.58c-.23-.17-.52-.4-.75-.58,4.49,7.89,1.21,17.39-2.3,27.46h0Z"/>
    <path class="cls-1" d="M67.5,55.98c-3.97,11.46-10.08,23.43,9.21,34.43-21.99-16.58,9.44-38.74-7.66-52.91,3.05,5.3,.81,11.69-1.55,18.48h0Z"/>
  </g>
</svg>